
<svg width="30" height="30" viewBox="0 0 30 30" fill="none" xmlns="http://www.w3.org/2000/svg">
<g clip-path="url(#clip0_1_653)">
<path d="M10.0492 15.1555L11.9295 14.6517L12.4334 16.532L10.553 17.0359L10.0492 15.1555ZM11.0569 18.9162L12.9372 18.4124L13.441 20.2927L11.5607 20.7965L11.0569 18.9162ZM13.8099 14.1478L15.6902 13.644L16.194 15.5243L14.3137 16.0282L13.8099 14.1478ZM14.8175 17.9085L16.6979 17.4047L17.2017 19.285L15.3214 19.7889L14.8175 17.9085ZM17.5705 13.1402L19.4509 12.6363L19.9547 14.5167L18.0744 15.0205L17.5705 13.1402ZM18.5782 16.9009L20.4585 16.397L20.9624 18.2774L19.082 18.7812L18.5782 16.9009Z" fill="white"/>
<path d="M10.9399 26.0012L24.1023 22.4743C25.1393 22.1965 25.7566 21.1272 25.4788 20.0902L21.9519 6.92782C21.6741 5.89082 20.6048 5.27346 19.5678 5.55132L17.6874 6.05515L17.1836 4.17482L15.3033 4.67865L15.8071 6.55899L10.1661 8.07049L9.66225 6.19016L7.78191 6.69399L8.28575 8.57433L6.40541 9.07816C5.36841 9.35603 4.75104 10.4253 5.02891 11.4623L8.55575 24.6247C8.83361 25.6617 9.90291 26.279 10.9399 26.0012ZM20.5754 9.31199L23.5994 20.5938L10.4361 24.1208L7.41308 12.8388L20.5754 9.31199Z" fill="white"/>
</g>
<defs>
<clipPath id="clip0_1_653">
<rect width="23.36" height="23.36" fill="white" transform="translate(0.696899 6.57715) rotate(-15)"/>
</clipPath>
</defs>
</svg>
