<svg width="30" height="30" viewBox="0 0 30 30" fill="none" xmlns="http://www.w3.org/2000/svg">
<path d="M26.1838 10.3813C26.1712 9.4346 25.994 8.49729 25.6601 7.61132C25.3705 6.86401 24.9283 6.18532 24.3616 5.61861C23.7948 5.0519 23.1161 4.60963 22.3688 4.32007C21.4943 3.99176 20.5703 3.81424 19.6363 3.79507C18.4338 3.74132 18.0526 3.72632 15.0001 3.72632C11.9476 3.72632 11.5563 3.72632 10.3626 3.79507C9.42904 3.81439 8.50552 3.9919 7.63134 4.32007C6.88391 4.60943 6.20511 5.05162 5.63838 5.61836C5.07164 6.18509 4.62945 6.86389 4.34009 7.61132C4.01113 8.48523 3.83399 9.40896 3.81634 10.3426C3.76259 11.5463 3.74634 11.9276 3.74634 14.9801C3.74634 18.0326 3.74634 18.4226 3.81634 19.6176C3.83509 20.5526 4.01134 21.4751 4.34009 22.3513C4.62993 23.0985 5.07246 23.777 5.63938 24.3435C6.20631 24.91 6.88517 25.352 7.63259 25.6413C8.50438 25.9828 9.42805 26.173 10.3638 26.2038C11.5676 26.2576 11.9488 26.2738 15.0013 26.2738C18.0538 26.2738 18.4451 26.2738 19.6388 26.2038C20.5728 26.1854 21.4968 26.0083 22.3713 25.6801C23.1185 25.3902 23.797 24.9478 24.3636 24.3811C24.9303 23.8145 25.3727 23.1359 25.6626 22.3888C25.9913 21.5138 26.1676 20.5913 26.1863 19.6551C26.2401 18.4526 26.2563 18.0713 26.2563 15.0176C26.2538 11.9651 26.2538 11.5776 26.1838 10.3813ZM14.9926 20.7526C11.8001 20.7526 9.21384 18.1663 9.21384 14.9738C9.21384 11.7813 11.8001 9.19507 14.9926 9.19507C16.5252 9.19507 17.9951 9.8039 19.0788 10.8876C20.1625 11.9714 20.7713 13.4412 20.7713 14.9738C20.7713 16.5064 20.1625 17.9763 19.0788 19.06C17.9951 20.1437 16.5252 20.7526 14.9926 20.7526ZM21.0013 10.3288C20.8243 10.329 20.649 10.2942 20.4855 10.2266C20.3219 10.1589 20.1733 10.0597 20.0481 9.93451C19.923 9.80935 19.8237 9.66074 19.7561 9.49718C19.6884 9.33362 19.6537 9.15832 19.6538 8.98132C19.6538 8.80444 19.6887 8.6293 19.7564 8.46589C19.824 8.30248 19.9233 8.154 20.0483 8.02893C20.1734 7.90386 20.3219 7.80466 20.4853 7.73697C20.6487 7.66928 20.8238 7.63444 21.0007 7.63444C21.1776 7.63444 21.3527 7.66928 21.5161 7.73697C21.6796 7.80466 21.828 7.90386 21.9531 8.02893C22.0782 8.154 22.1774 8.30248 22.2451 8.46589C22.3127 8.6293 22.3476 8.80444 22.3476 8.98132C22.3476 9.72632 21.7451 10.3288 21.0013 10.3288Z" fill="white"/>
<path d="M14.9925 18.7275C17.0657 18.7275 18.7463 17.0469 18.7463 14.9737C18.7463 12.9006 17.0657 11.22 14.9925 11.22C12.9194 11.22 11.2388 12.9006 11.2388 14.9737C11.2388 17.0469 12.9194 18.7275 14.9925 18.7275Z" fill="white"/>
</svg>