
<svg width="15" height="22" viewBox="0 0 15 22" fill="none" xmlns="http://www.w3.org/2000/svg">
<path d="M5.84745 18.9115L12.2434 7.83349L6.98149 4.79555L0.585582 15.8736C0.49757 16.0263 0.452519 16.1999 0.455207 16.3761L0.807636 21.5649L5.47652 19.2759C5.63091 19.1902 5.75935 19.0641 5.84745 18.9115ZM14.3081 4.25724C14.5661 3.81017 14.636 3.27892 14.5024 2.78032C14.3688 2.28173 14.0427 1.8566 13.5957 1.59844L11.705 0.506876C11.258 0.248851 10.7267 0.178952 10.2281 0.31255C9.72953 0.446149 9.30441 0.772307 9.04625 1.2193L7.95468 3.10995L13.2165 6.14788L14.3081 4.25724Z" fill="white"/>
</svg>
