
<svg width="26" height="26" viewBox="0 0 26 26" fill="none" xmlns="http://www.w3.org/2000/svg">
<path d="M14.1446 3.60316C8.79801 3.13717 4.06913 7.10782 3.60313 12.4544C3.13714 17.8009 7.10779 22.5298 12.4543 22.9958C17.8009 23.4618 22.5298 19.4911 22.9958 14.1446C23.4618 8.79804 19.4911 4.06916 14.1446 3.60316ZM12.6234 21.0565C8.34632 20.6838 5.16962 16.9004 5.5424 12.6234C5.91517 8.34635 9.69849 5.16965 13.9755 5.54243C18.2526 5.9152 21.4293 9.69852 21.0565 13.9756C20.6837 18.2526 16.9004 21.4293 12.6234 21.0565Z" fill="white"/>
<path d="M9.968 17.8941L18.1476 13.722L10.8131 8.19775L9.968 17.8941Z" fill="white"/>
</svg>
