
<svg width="21" height="16" viewBox="0 0 21 16" fill="none" xmlns="http://www.w3.org/2000/svg">
<path d="M19.1355 4.63541L14.6667 9.10416L13.3125 7.76041L11.8438 9.23958L14.6563 12.0521L20.6146 6.11458L19.1355 4.63541ZM2.16671 4.33333C2.15388 4.88401 2.25289 5.43157 2.45774 5.9429C2.66259 6.45422 2.96904 6.91867 3.35853 7.30817C3.74803 7.69767 4.21248 8.00411 4.72381 8.20897C5.23513 8.41382 5.78269 8.51283 6.33337 8.5C6.88406 8.51283 7.43162 8.41382 7.94294 8.20897C8.45426 8.00411 8.91872 7.69767 9.30822 7.30817C9.69771 6.91867 10.0042 6.45422 10.209 5.9429C10.4139 5.43157 10.5129 4.88401 10.5 4.33333C10.5129 3.78265 10.4139 3.23509 10.209 2.72376C10.0042 2.21244 9.69771 1.74798 9.30822 1.35849C8.91872 0.968991 8.45426 0.662548 7.94294 0.457695C7.43162 0.252841 6.88406 0.153834 6.33337 0.166663C5.78269 0.153834 5.23513 0.252841 4.72381 0.457695C4.21248 0.662548 3.74803 0.968991 3.35853 1.35849C2.96904 1.74798 2.66259 2.21244 2.45774 2.72376C2.25289 3.23509 2.15388 3.78265 2.16671 4.33333ZM8.41671 4.33333C8.4301 4.61047 8.38539 4.88734 8.28543 5.14617C8.18547 5.405 8.03249 5.64006 7.83629 5.83625C7.6401 6.03244 7.40504 6.18543 7.14621 6.28539C6.88738 6.38534 6.61051 6.43006 6.33337 6.41666C6.05624 6.43006 5.77936 6.38534 5.52054 6.28539C5.26171 6.18543 5.02665 6.03244 4.83046 5.83625C4.63426 5.64006 4.48127 5.405 4.38132 5.14617C4.28136 4.88734 4.23664 4.61047 4.25004 4.33333C4.23664 4.05619 4.28136 3.77932 4.38132 3.52049C4.48127 3.26166 4.63426 3.0266 4.83046 2.83041C5.02665 2.63422 5.26171 2.48123 5.52054 2.38127C5.77936 2.28131 6.05624 2.2366 6.33337 2.25C6.61051 2.2366 6.88738 2.28131 7.14621 2.38127C7.40504 2.48123 7.6401 2.63422 7.83629 2.83041C8.03249 3.0266 8.18547 3.26166 8.28543 3.52049C8.38539 3.77932 8.4301 4.05619 8.41671 4.33333ZM2.16671 14.75C2.16671 13.9212 2.49595 13.1263 3.082 12.5403C3.66805 11.9542 4.46291 11.625 5.29171 11.625H7.37504C8.20384 11.625 8.9987 11.9542 9.58475 12.5403C10.1708 13.1263 10.5 13.9212 10.5 14.75V15.7917H12.5834V14.75C12.5834 14.066 12.4487 13.3888 12.1869 12.7569C11.9252 12.1249 11.5415 11.5508 11.0579 11.0671C10.5742 10.5835 10.0001 10.1999 9.36818 9.93812C8.73628 9.67638 8.05901 9.54166 7.37504 9.54166H5.29171C3.91037 9.54166 2.58561 10.0904 1.60886 11.0671C0.632107 12.0439 0.083374 13.3687 0.083374 14.75V15.7917H2.16671V14.75Z" fill="#CB8461"/>
</svg>
